<mxfile host="app.diagrams.net" modified="2023-09-11T06:22:14.642Z" agent="Mozilla/5.0 (Windows NT 10.0; Win64; x64) AppleWebKit/537.36 (KHTML, like Gecko) Chrome/116.0.0.0 Safari/537.36" version="21.7.4" etag="xGOpWEgH4AVDSgwQsaBT" type="github">
  <diagram name="Page-1" id="g7pm6bO-oBDpX_hH64ed">
    <mxGraphModel>
      <root>
        <mxCell id="0" />
        <mxCell id="1" parent="0" />
      </root>
    </mxGraphModel>
  </diagram>
</mxfile>
